<svg xmlns="http://www.w3.org/2000/svg" viewBox="0 0 1600 900" width="1600" height="900"><rect width="1600" height="900" fill="#EEEBE3"/><rect x="0" y="0" width="1600" height="900" fill="#EEEBE3"/><rect x="-29.2" y="40.0" width="1452.9" height="138.4" rx="69.2" fill="#E3DFD4" stroke="#1C1E2B" stroke-width="4" stroke-linejoin="round" stroke-linecap="round" transform="rotate(-11.3 800 450)"/><rect x="83.4" y="153.5" width="1102.5" height="146.8" rx="73.4" fill="#FAF8F2" stroke="#1C1E2B" stroke-width="4" stroke-linejoin="round" stroke-linecap="round" transform="rotate(-11.3 800 450)"/><rect x="-90.2" y="273.9" width="1502.9" height="116.2" rx="58.1" fill="#985623" stroke="#1C1E2B" stroke-width="4" stroke-linejoin="round" stroke-linecap="round" transform="rotate(-11.3 800 450)"/><rect x="73.3" y="369.1" width="1222.2" height="144.5" rx="72.3" fill="#2E3A6E" stroke="#1C1E2B" stroke-width="4" stroke-linejoin="round" stroke-linecap="round" transform="rotate(-11.3 800 450)"/><rect x="44.5" y="487.6" width="1105.2" height="118.3" rx="59.2" fill="#FAF8F2" stroke="#1C1E2B" stroke-width="4" stroke-linejoin="round" stroke-linecap="round" transform="rotate(-11.3 800 450)"/><rect x="40.8" y="584.6" width="1078.8" height="107.7" rx="53.8" fill="#E3DFD4" stroke="#1C1E2B" stroke-width="4" stroke-linejoin="round" stroke-linecap="round" transform="rotate(-11.3 800 450)"/><rect x="1175.0" y="674.5" width="230" height="90" rx="14" fill="#FAF8F2" stroke="#1C1E2B" stroke-width="4" stroke-linejoin="round" stroke-linecap="round"/><path d="M1405.0,719.5 h60 v120 h-150 v130" fill="none" stroke="#1C1E2B" stroke-width="4" stroke-linejoin="round" stroke-linecap="round"/><rect x="2" y="2" width="1596" height="896" fill="none" stroke="#1C1E2B" stroke-width="4"/></svg>
